# xmcd
#
# Track frame offsets:
#       150
#       16253
#       31450
#       48288
#       65068
#       83685
#       98133
#       113533
#       140440
#       158885
#       175498
#       196623
#
# Disc length: 2880 seconds
#
# Revision: 1
# Processed by: cddbd v1.4PL0 Copyright (c) Steve Scherf et al.
# Submitted via: MusiCat 1.1
#
DISCID=930b3e0c
DTITLE=Tender Madness - Standing at the Crossroads
DYEAR=1991
DGENRE=
TTITLE0=No TT-Funk
TTITLE1=Standing at the Crossroads
TTITLE2=Love grow cold
TTITLE3=Good to you
TTITLE4=The Wrong Thing
TTITLE5=Railroad Boogie
TTITLE6=Don't you leave me
TTITLE7=Hardworking Man
TTITLE8=Down the Border
TTITLE9=Easy Going
TTITLE10=Staying Out
TTITLE11=Let's go dance
EXTD=1991\n\n\nsubmitted by Stamppot
EXTT0=
EXTT1=
EXTT2=
EXTT3=
EXTT4=
EXTT5=
EXTT6=
EXTT7=
EXTT8=
EXTT9=
EXTT10=
EXTT11=
PLAYORDER=
